{"title":"Sergio Leone's Once Upon A TIme In America (1984) - 1080p x265 H","uid":13661222,"size":3327239848,"categoryP":"video","categoryS":"hd___movies","magnet":"?xt=urn:btih:d51b183efd2ea316bf68327c964db5dc598dd041&amp;dn=Sergio+Leone%27s+Once+Upon+A+TIme+In+America+%281984%29+-+1080p+x265+H&amp;tr=udp%3A%2F%2Ftracker.leechers-paradise.org%3A6969&amp;tr=udp%3A%2F%2Fzer0day.ch%3A1337&amp;tr=udp%3A%2F%2Fopen.demonii.com%3A1337&amp;tr=udp%3A%2F%2Ftracker.coppersurfer.tk%3A6969&amp;tr=udp%3A%2F%2Fexodus.desync.com%3A6969","seeders":0,"leechers":1,"uploader":"BRSHNKV","files":1,"time":1456248574,"description":"A former Prohibition-era Jewish gangster returns to the Lower East Side of Manhattan over thirty years later, where he once again must confront the ghosts and regrets of his old life.\r\n\r\n\r\nTechnical:\r\n\r\nFormat : MPEG-4\r\nFormat profile : Base Media / Version 2\r\nCodec ID : mp42\r\nFile size : 3.10 GiB\r\nDuration : 3h 49mn\r\nOverall bit rate mode : Variable\r\nOverall bit rate : 1 934 Kbps\r\nEncoded date : UTC 2016-02-18 05:12:14\r\nTagged date : UTC 2016-02-18 05:12:14\r\nWriting application : HandBrake 0.10.2 2015061100\r\n\r\nVideo\r\nID : 1\r\nFormat : HEVC\r\nFormat/Info : High Efficiency Video Coding\r\nFormat profile :   @Main\r\nCodec ID : hev1\r\nCodec ID/Info : High Efficiency Video Coding\r\nDuration : 3h 49mn\r\nBit rate : 1 601 Kbps\r\nWidth : 1 920 pixels\r\nHeight : 1 080 pixels\r\nDisplay aspect ratio : 16:9\r\nFrame rate mode : Variable\r\nFrame rate : 23.976 fps\r\nMinimum frame rate : 23.974 fps\r\nMaximum frame rate : 23.981 fps\r\nColor space : YUV\r\nChroma subsampling : 4:2:0\r\nBit depth : 8 bits\r\nBits/(Pixel*Frame) : 0.032\r\nStream size : 2.56 GiB (83%)\r\nWriting library : x265 1.5:[Mac OS X][clang 6.1.0][64 bit]\r\nEncoding settings : wpp / ctu=64 / tu-intra-depth=1 / tu-inter-depth=1 / me=1 /\r\nEncoded date : UTC 2016-02-18 05:12:14\r\nTagged date : UTC 2016-02-18 05:12:14\r\nColor range : Limited\r\nColor primaries : BT.709\r\nTransfer characteristics : BT.709\r\nMatrix coefficients : BT.709\r\n\r\nAudio #1\r\nID : 2\r\nFormat : AAC\r\nFormat/Info : Advanced Audio Codec\r\nFormat profile : LC\r\nCodec ID : 40\r\nDuration : 3h 49mn\r\nBit rate mode : Variable\r\nBit rate : 160 Kbps\r\nChannel(s) : 2 channels\r\nChannel positions : Front: L R\r\nSampling rate : 48.0 KHz\r\nCompression mode : Lossy\r\nStream size : 263 MiB (8%)\r\nTitle : Stereo / Stereo\r\nLanguage : English\r\nEncoded date : UTC 2016-02-18 05:12:14\r\nTagged date : UTC 2016-02-18 05:12:14\r\n\r\nAudio #2\r\nID : 3\r\nFormat : AAC\r\nFormat/Info : Advanced Audio Codec\r\nFormat profile : LC\r\nCodec ID : 40\r\nDuration : 3h 49mn\r\nBit rate mode : Variable\r\nBit rate : 164 Kbps\r\nChannel(s) : 2 channels\r\nChannel positions : Front: L R\r\nSampling rate : 48.0 KHz\r\nCompression mode : Lossy\r\nStream size : 268 MiB (8%)\r\nTitle : Stereo / Stereo\r\nLanguage : Italian\r\nEncoded date : UTC 2016-02-18 05:12:14\r\nTagged date : UTC 2016-02-18 05:12:14\r\n\r\nText\r\nID : 4\r\nFormat : Timed Text\r\nMuxing mode : sbtl\r\nCodec ID : tx3g\r\nDuration : 3h 37mn\r\nBit rate mode : Variable\r\nBit rate : 33 bps\r\nStream size : 53.2 KiB (0%)\r\nLanguage : English\r\nEncoded date : UTC 2016-02-18 05:12:14\r\nTagged date : UTC 2016-02-18 05:12:14","torrent":{"xt":"urn:btih:d51b183efd2ea316bf68327c964db5dc598dd041","amp;dn":"Sergio+Leone%27s+Once+Upon+A+TIme+In+America+%281984%29+-+1080p+x265+H","amp;tr":["udp%3A%2F%2Ftracker.leechers-paradise.org%3A6969","udp%3A%2F%2Fzer0day.ch%3A1337","udp%3A%2F%2Fopen.demonii.com%3A1337","udp%3A%2F%2Ftracker.coppersurfer.tk%3A6969","udp%3A%2F%2Fexodus.desync.com%3A6969"],"infoHash":"d51b183efd2ea316bf68327c964db5dc598dd041","infoHashBuffer":{"type":"Buffer","data":[213,27,24,62,253,46,163,22,191,104,50,124,150,77,181,220,89,141,208,65]},"announce":[],"urlList":[]}}